# xmcd CD database file generated by Grip 3.3.0
# 
# Track frame offsets:
#       150
#       23691
#       46082
#       63755
#       83593
#       102417
#       121884
#       143381
#       165962
#       187727
# 
# Disc length: 2691 seconds
# 
# Revision: 1
# Processed by: cddbd v1.5.1PL0 Copyright (c) Steve Scherf et al.
# Submitted via: Grip 3.3.0
# 
DISCID=640a810a
DTITLE=Preservation Hall Jazz Band with Duke Dejan - Hot 4
DYEAR=1996
DGENRE=Jazz
TTITLE0=Corrina, Corrina
TTITLE1=I'm Alone Because I Love You
TTITLE2=Lady Be Good
TTITLE3=I'm Confessin' (That I Love You)
TTITLE4=Ain't She Sweet
TTITLE5=Red Wing
TTITLE6=Basin Street Blues
TTITLE7=Dinah
TTITLE8=Wrap Your Troubles In Dreams
TTITLE9=If I Had To Live My Life Over
EXTD=YEAR: 2004
EXTT0=
EXTT1=
EXTT2=
EXTT3=
EXTT4=
EXTT5=
EXTT6=
EXTT7=
EXTT8=
EXTT9=
PLAYORDER=
